<svg width="22" height="22" viewBox="0 0 22 22" fill="none" xmlns="http://www.w3.org/2000/svg">
<path d="M10.9192 11.8542C10.942 11.8542 10.9648 11.8542 10.9921 11.8542C11.0012 11.8542 11.0104 11.8542 11.0195 11.8542C11.0331 11.8542 11.0514 11.8542 11.065 11.8542C12.3999 11.8314 13.4796 11.3622 14.2769 10.4647C16.0309 8.48747 15.7393 5.09795 15.7074 4.77449C15.5935 2.34624 14.4454 1.18451 13.4978 0.642369C12.7917 0.236902 11.9671 0.0182232 11.0468 0H11.0149C11.0104 0 11.0012 0 10.9967 0H10.9694C10.4637 0 9.47049 0.0820046 8.51833 0.624146C7.56161 1.16629 6.39532 2.32802 6.28142 4.77449C6.24953 5.09795 5.95796 8.48747 7.71195 10.4647C8.50466 11.3622 9.58439 11.8314 10.9192 11.8542ZM7.49783 4.88838C7.49783 4.87472 7.50238 4.86105 7.50238 4.85194C7.65272 1.58542 9.97163 1.23462 10.9648 1.23462H10.983C10.9921 1.23462 11.0058 1.23462 11.0195 1.23462C12.2495 1.26196 14.3406 1.7631 14.4819 4.85194C14.4819 4.8656 14.4819 4.87927 14.4864 4.88838C14.491 4.92027 14.8099 8.01822 13.3612 9.6492C12.7871 10.2961 12.0217 10.615 11.0149 10.6241C11.0058 10.6241 11.0012 10.6241 10.9921 10.6241C10.983 10.6241 10.9785 10.6241 10.9694 10.6241C9.96707 10.615 9.19714 10.2961 8.62767 9.6492C7.18347 8.02734 7.49327 4.91572 7.49783 4.88838Z" fill="#383838"/>
<path d="M20.3545 17.4761C20.3545 17.4715 20.3545 17.467 20.3545 17.4624C20.3545 17.426 20.35 17.3895 20.35 17.3485C20.3226 16.4465 20.2634 14.3371 18.2862 13.6629C18.2725 13.6583 18.2543 13.6538 18.2406 13.6492C16.186 13.1253 14.4775 11.9408 14.4593 11.9271C14.1814 11.7312 13.7987 11.7995 13.6028 12.0775C13.4069 12.3554 13.4753 12.738 13.7532 12.9339C13.8306 12.9886 15.6438 14.2506 17.9126 14.8337C18.9741 15.2119 19.0926 16.3462 19.1245 17.385C19.1245 17.426 19.1245 17.4624 19.129 17.4989C19.1336 17.9089 19.1062 18.5422 19.0333 18.9066C18.2953 19.3258 15.4024 20.7745 11.0014 20.7745C6.61876 20.7745 3.7076 19.3212 2.965 18.9021C2.89211 18.5376 2.86022 17.9043 2.86933 17.4943C2.86933 17.4579 2.87389 17.4214 2.87389 17.3804C2.90578 16.3417 3.02423 15.2073 4.08573 14.8292C6.35452 14.246 8.16774 12.9795 8.24518 12.9294C8.52309 12.7335 8.59143 12.3508 8.39553 12.0729C8.19963 11.795 7.81694 11.7267 7.53903 11.9226C7.52081 11.9362 5.82149 13.1207 3.75771 13.6447C3.73949 13.6492 3.72582 13.6538 3.71216 13.6583C1.73493 14.3371 1.67571 16.4465 1.64837 17.344C1.64837 17.385 1.64837 17.4214 1.64382 17.4579C1.64382 17.4624 1.64382 17.467 1.64382 17.4715C1.63926 17.7084 1.63471 18.9248 1.87616 19.5353C1.92172 19.6538 2.00373 19.754 2.11307 19.8223C2.24974 19.9135 5.52537 22 11.006 22C16.4866 22 19.7623 19.9089 19.8989 19.8223C20.0037 19.754 20.0903 19.6538 20.1358 19.5353C20.3636 18.9294 20.3591 17.713 20.3545 17.4761Z" fill="#383838"/>
</svg>
