<svg width="22" height="22" viewBox="0 0 22 22" fill="none" xmlns="http://www.w3.org/2000/svg">
<g clip-path="url(#clip0)">
<path d="M6.60506 14.4853H18.7271C20.1016 14.4853 21.2229 13.364 21.2229 11.9895V6.8893C21.2229 6.88478 21.2229 6.87574 21.2229 6.87121C21.2229 6.85765 21.2229 6.84861 21.2229 6.83504C21.2229 6.826 21.2229 6.81696 21.2184 6.80791C21.2184 6.79887 21.2139 6.78531 21.2139 6.77626C21.2139 6.76722 21.2094 6.75818 21.2094 6.74914C21.2048 6.74009 21.2048 6.73105 21.2003 6.71749C21.1958 6.70844 21.1958 6.6994 21.1913 6.69036C21.1868 6.68131 21.1868 6.67227 21.1822 6.66323C21.1777 6.65419 21.1732 6.64514 21.1687 6.63158C21.1642 6.62254 21.1596 6.61349 21.1551 6.60897C21.1506 6.59993 21.1461 6.59088 21.1415 6.58184C21.137 6.5728 21.1325 6.56828 21.128 6.55923C21.1235 6.55019 21.1144 6.54115 21.1099 6.53211C21.1054 6.52306 21.1008 6.51854 21.0918 6.5095C21.0873 6.50046 21.0782 6.49593 21.0737 6.48689C21.0692 6.47785 21.0602 6.47333 21.0556 6.46428C21.0511 6.45524 21.0421 6.45072 21.0375 6.4462C21.0285 6.43716 21.024 6.43263 21.0149 6.42359C21.0059 6.41907 21.0014 6.41003 20.9923 6.40551C20.9833 6.40098 20.9742 6.39194 20.9652 6.38742C20.9562 6.3829 20.9516 6.37838 20.9426 6.37385C20.9336 6.36933 20.9245 6.36481 20.9155 6.35577C20.9064 6.35125 20.8974 6.34673 20.8883 6.3422C20.8793 6.33768 20.8703 6.33316 20.8612 6.32864C20.8522 6.32412 20.8431 6.3196 20.8341 6.31508C20.825 6.31055 20.816 6.31055 20.807 6.30603C20.7979 6.30151 20.7843 6.29699 20.7753 6.29699C20.7663 6.29699 20.7572 6.29247 20.7527 6.29247C20.7391 6.28795 20.7301 6.28795 20.7165 6.28795C20.712 6.28795 20.7075 6.28343 20.6984 6.28343L5.33453 4.16286V2.01969C5.33453 1.99709 5.33453 1.97448 5.33001 1.95639C5.33001 1.95187 5.33001 1.94735 5.32549 1.93831C5.32549 1.92474 5.32097 1.91118 5.32097 1.89761C5.31645 1.88405 5.31645 1.87501 5.31193 1.86144C5.31193 1.8524 5.30741 1.84788 5.30741 1.83883C5.30288 1.82527 5.29836 1.81171 5.29384 1.79814C5.29384 1.79362 5.28932 1.78458 5.28932 1.78006C5.2848 1.76649 5.28028 1.75745 5.27123 1.74388C5.26671 1.73936 5.26671 1.73032 5.26219 1.7258C5.25767 1.71676 5.25315 1.70771 5.24411 1.69867C5.23958 1.68963 5.23506 1.68511 5.23054 1.67606C5.22602 1.66702 5.2215 1.6625 5.21698 1.65346C5.21246 1.64441 5.20341 1.63537 5.19889 1.62633C5.19437 1.6218 5.18985 1.61728 5.18533 1.61276C5.17628 1.60372 5.16724 1.59468 5.1582 1.58563C5.15368 1.58111 5.14915 1.57659 5.14463 1.57207C5.13559 1.56303 5.12655 1.55398 5.11298 1.54494C5.10846 1.54042 5.09942 1.5359 5.0949 1.53138C5.08585 1.52233 5.07681 1.51781 5.06777 1.50877C5.0542 1.49973 5.04064 1.49068 5.0316 1.48616C5.02708 1.48164 5.02255 1.48164 5.01803 1.47712C4.99995 1.46808 4.97734 1.45903 4.95925 1.44999L1.62694 0.0483383C1.31496 -0.0827839 0.957766 0.0619027 0.826643 0.373883C0.695521 0.685864 0.840208 1.04306 1.15219 1.17418L4.10922 2.4221V5.18923V5.62781V8.99178V11.9985V15.7966C4.10922 17.0626 5.05873 18.1116 6.28404 18.2698C6.06249 18.6406 5.93137 19.0746 5.93137 19.5358C5.93137 20.8968 7.03912 22 8.39556 22C9.752 22 10.8598 20.8922 10.8598 19.5358C10.8598 19.0837 10.7377 18.6541 10.5206 18.2924H16.0097C15.7927 18.6586 15.6706 19.0837 15.6706 19.5358C15.6706 20.8968 16.7783 22 18.1348 22C19.4912 22 20.599 20.8922 20.599 19.5358C20.599 18.1794 19.4912 17.0716 18.1348 17.0716H6.60506C5.89972 17.0716 5.33001 16.4974 5.33001 15.7966V14.1417C5.70077 14.3587 6.13935 14.4853 6.60506 14.4853ZM9.64348 19.5313C9.64348 20.2186 9.08282 20.7747 8.40008 20.7747C7.71734 20.7747 7.15668 20.214 7.15668 19.5313C7.15668 18.8486 7.71734 18.2879 8.40008 18.2879C9.08282 18.2879 9.64348 18.844 9.64348 19.5313ZM19.3827 19.5313C19.3827 20.2186 18.822 20.7747 18.1393 20.7747C17.4566 20.7747 16.8959 20.214 16.8959 19.5313C16.8959 18.8486 17.4566 18.2879 18.1393 18.2879C18.822 18.2879 19.3827 18.844 19.3827 19.5313ZM18.7271 13.2646H6.60506C5.89972 13.2646 5.33001 12.6903 5.33001 11.9895V8.98274V5.61877V5.3927L20.0021 7.41379V11.985C20.0021 12.6948 19.4279 13.2646 18.7271 13.2646Z" fill="#383838"/>
</g>
<defs>
<clipPath id="clip0">
<rect width="22" height="22" fill="white"/>
</clipPath>
</defs>
</svg>
