<svg width="300" height="41" viewBox="0 0 300 41" fill="none" xmlns="http://www.w3.org/2000/svg">
<g clip-path="url(#clip0)">
<path fill-rule="evenodd" clip-rule="evenodd" d="M296.882 21.7765L296.782 22.2271L296.564 23.1282C296.291 24.5039 295.887 25.8505 295.357 27.1498C295.193 27.4046 294.976 27.621 294.72 27.7839C294.117 28.2492 293.399 28.5433 292.641 28.6349C292.475 28.6376 292.309 28.6047 292.156 28.5385C292.003 28.4723 291.865 28.3743 291.753 28.2511C291.523 27.994 291.398 27.6608 291.401 27.3166C291.541 26.0264 291.845 24.759 292.306 23.5454C292.692 22.3105 293.044 21.3093 293.345 20.5584C293.647 19.8075 293.798 19.4404 294.066 18.8897L294.636 17.5881C293.754 17.7189 292.863 17.7859 291.971 17.7883C291.116 17.7883 290.697 17.488 290.697 16.8872C290.79 16.3179 291.088 15.8017 291.535 15.4355C291.809 15.1216 292.146 14.8687 292.524 14.6933C292.902 14.5179 293.314 14.4239 293.731 14.4176C294.586 14.4176 295.692 14.4176 297.083 14.5511H297.368H297.653C298.072 14.5511 298.592 14.5511 299.179 14.7012C299.412 14.7448 299.627 14.855 299.799 15.0183C299.938 15.1683 300.016 15.3648 300.017 15.569C300.034 15.79 300.002 16.0121 299.924 16.2196C299.846 16.4272 299.723 16.6152 299.564 16.7704C299.121 17.053 298.614 17.2195 298.089 17.2544H297.854H297.653C297.73 17.3244 297.793 17.4093 297.836 17.504C297.879 17.5987 297.902 17.7011 297.905 17.805C297.858 18.2371 297.762 18.6625 297.62 19.0732C297.536 19.2902 297.385 19.8075 297.167 20.6418L296.882 21.7765ZM279.567 23.8624L279.35 24.5466C279.31 24.7549 279.26 24.961 279.199 25.164C278.973 26.0499 278.659 26.9108 278.26 27.7338C278.178 27.8617 278.089 27.9843 277.992 28.1009C277.537 28.5188 276.934 28.7407 276.316 28.7183C275.919 28.7312 275.525 28.6391 275.176 28.4513C275.004 28.3626 274.86 28.2285 274.759 28.0637C274.659 27.8988 274.606 27.7097 274.606 27.5169C274.732 26.3682 275.026 25.2439 275.478 24.1795C274.941 24.0682 274.673 23.8346 274.673 23.4786C274.735 22.8272 275.055 22.227 275.561 21.8099C275.772 21.5846 276.029 21.408 276.316 21.2926C276.316 21.2926 276.55 20.6251 276.919 19.4237C277.339 17.9764 277.9 16.5735 278.595 15.2352C278.724 15.0438 278.864 14.86 279.014 14.6846C279.396 14.3331 279.903 14.147 280.422 14.1673C280.716 14.1435 281.012 14.1937 281.281 14.3132C281.551 14.4328 281.785 14.6179 281.964 14.8514C282.101 15.0779 282.171 15.3382 282.165 15.6023C281.802 17.3076 281.303 18.9815 280.674 20.6084L280.523 21.0757V21.1591L284.395 21.0757L284.562 20.4249C284.927 19.1445 285.364 17.8854 285.87 16.6536C286.1 15.9902 286.44 15.3698 286.875 14.8181C287.069 14.6224 287.302 14.4694 287.559 14.3688C287.816 14.2682 288.091 14.2223 288.367 14.234C289.457 14.234 290.043 14.7012 290.043 15.6357C289.83 17.3065 289.355 18.9338 288.635 20.4583C288.501 20.7809 288.418 20.9978 288.384 21.1091H288.518C289.356 21.1091 289.758 21.3594 289.758 21.86C289.758 22.3606 289.474 22.661 288.887 23.2784C288.715 23.4798 288.504 23.6444 288.267 23.7623C288.015 23.8682 287.75 23.9411 287.479 23.9792V24.1461L287.278 24.7135C287.093 25.1974 286.825 25.9149 286.44 26.8828C286.285 27.2611 286.044 27.5982 285.736 27.8673C285.111 28.3991 284.327 28.7101 283.506 28.7517C282.802 28.7517 282.45 28.4347 282.45 27.8339C282.582 26.7652 282.846 25.7169 283.238 24.7135C283.238 24.5132 283.406 24.2629 283.506 23.9625L279.567 23.8624ZM267.365 17.1876C266.646 17.91 266.076 18.7662 265.689 19.7074C265.518 20.135 265.384 20.5759 265.287 21.0256C265.177 21.5749 265.126 22.1343 265.136 22.6943C265.057 23.339 265.108 23.993 265.286 24.6177C265.465 25.2424 265.767 25.8253 266.175 26.3321C266.337 26.4878 266.529 26.6094 266.739 26.6897C266.949 26.77 267.173 26.8073 267.398 26.7993C267.88 26.7482 268.342 26.5819 268.744 26.3145C269.147 26.0472 269.479 25.6868 269.712 25.2641C270.413 24.3406 270.801 23.2182 270.818 22.0602C270.771 20.9981 270.428 19.9697 269.829 19.0899C269.64 18.8392 269.514 18.5476 269.46 18.2389C269.472 18.0718 269.521 17.9094 269.602 17.7625C269.683 17.6157 269.795 17.4879 269.929 17.3879C270.522 16.6931 271.341 16.2267 272.243 16.0696C272.41 16.0602 272.577 16.0918 272.729 16.1617C272.88 16.2315 273.013 16.3374 273.114 16.4701C273.756 17.4084 274.036 18.5464 273.902 19.674C273.912 21.1872 273.591 22.6846 272.963 24.0627C272.362 25.4501 271.387 26.6454 270.147 27.5169C269.055 28.3046 267.742 28.7307 266.393 28.735C265.624 28.7567 264.86 28.6195 264.147 28.3323C263.435 28.0451 262.79 27.6141 262.253 27.0663C261.848 26.6523 261.533 26.1607 261.325 25.6213C261.118 25.082 261.023 24.5062 261.046 23.9292C261.129 22.1898 261.71 20.5104 262.722 19.0899C263.655 17.5603 264.957 16.287 266.51 15.3854C267.744 14.669 269.139 14.2731 270.566 14.234C271.371 14.234 271.756 14.3508 271.756 14.6011C271.723 14.7572 271.648 14.9014 271.539 15.0183C270.993 15.5023 270.337 15.8461 269.628 16.0195C269.21 16.1243 268.805 16.2755 268.421 16.4701C268.036 16.6717 267.681 16.9243 267.365 17.221V17.1876ZM260.191 17.0875C260.185 17.6991 260.03 18.3 259.737 18.838C259.445 19.376 259.026 19.8348 258.515 20.1746C257.973 20.5922 257.36 20.9088 256.705 21.1091H256.386C258.833 21.4261 260.057 22.4273 260.057 24.1294C260.036 24.8895 259.804 25.6289 259.386 26.2653C259.158 26.6236 258.888 26.954 258.582 27.2499C257.58 28.2001 256.452 29.0087 255.23 29.6528C254.001 30.3807 252.617 30.8095 251.19 30.9043C250.215 30.9588 249.245 30.7205 248.408 30.2202C248.283 30.1548 248.176 30.0596 248.097 29.9431C248.018 29.8266 247.969 29.6925 247.955 29.5527C247.949 29.3378 248.014 29.1268 248.139 28.952C248.33 28.6735 248.543 28.4112 248.776 28.1677C249.081 27.9853 249.401 27.829 249.732 27.7004H249.983C250.305 27.7191 250.619 27.8043 250.905 27.9507C251.127 28.0671 251.356 28.1675 251.592 28.2511C251.938 28.3312 252.293 28.3704 252.648 28.3679C253.015 28.3801 253.381 28.3184 253.724 28.1865C254.067 28.0546 254.379 27.8552 254.643 27.6003C255.074 27.2142 255.419 26.7436 255.659 26.2181C255.898 25.6926 256.026 25.1235 256.034 24.5466C256.041 24.2775 255.993 24.0099 255.892 23.7602C255.791 23.5105 255.64 23.284 255.447 23.0948C254.967 22.7073 254.386 22.4642 253.771 22.394C253.49 22.3554 253.214 22.2826 252.95 22.177C252.821 22.0947 252.717 21.9794 252.648 21.8433C252.527 21.6653 252.457 21.4574 252.447 21.2426C252.43 21.1656 252.43 21.0859 252.447 21.0089C252.495 20.8632 252.586 20.7355 252.709 20.643C252.832 20.5505 252.98 20.4977 253.134 20.4916H253.788C254.055 20.452 254.308 20.349 254.526 20.1913C254.94 19.9234 255.303 19.5844 255.598 19.1901C255.909 18.7803 256.085 18.2848 256.101 17.7717C256.101 16.8205 255.598 16.3533 254.593 16.3533C253.933 16.4282 253.295 16.6324 252.715 16.954L251.039 18.0386C250.934 18.0574 250.826 18.0574 250.721 18.0386C250.487 18.034 250.255 17.9946 250.033 17.9218L249.564 17.805C249.279 17.805 249.128 17.6882 249.128 17.4713C249.164 17.1041 249.285 16.7501 249.48 16.4367C249.648 16.098 249.868 15.7882 250.134 15.5189C250.808 14.9663 251.608 14.588 252.464 14.4176C253.294 14.1844 254.15 14.0555 255.012 14.0338C256.312 13.9692 257.607 14.2454 258.766 14.8347C259.206 15.0308 259.576 15.3533 259.83 15.7607C260.084 16.1681 260.21 16.6418 260.191 17.1209V17.0875ZM242.826 23.6121C242.134 24.9085 241.29 26.1185 240.312 27.2165C239.647 27.9969 238.703 28.4879 237.68 28.5848C237.303 28.6036 236.926 28.5402 236.575 28.3989C236.225 28.2577 235.91 28.0421 235.652 27.7672C235.179 27.171 234.94 26.4234 234.981 25.6646C235.086 23.8724 235.418 22.1006 235.97 20.3915C236.363 18.9909 236.839 17.6146 237.395 16.2698C237.574 15.8394 237.781 15.4213 238.015 15.0183C238.15 14.8259 238.325 14.664 238.527 14.5433C238.729 14.4225 238.955 14.3455 239.189 14.3174C239.652 14.225 240.124 14.1802 240.597 14.1839C241.334 14.1839 241.703 14.501 241.703 15.1351C241.64 15.7134 241.482 16.2773 241.234 16.8038C241.016 17.3879 240.781 17.9552 240.563 18.4725C240.563 18.606 240.446 18.7896 240.362 19.0566C239.942 20.3729 239.59 21.7095 239.306 23.0614C239.207 23.4327 239.145 23.8128 239.122 24.1962C239.122 24.4465 239.122 24.58 239.339 24.58C239.557 24.58 240.664 23.3451 242.273 20.8588C242.943 19.8408 243.496 18.8897 243.949 18.0386C244.2 17.6215 244.351 17.3378 244.418 17.221C244.578 16.9453 244.782 16.6973 245.022 16.4868C245.397 16.2183 245.85 16.0778 246.312 16.0863C246.966 16.0863 247.284 16.3699 247.284 16.954C247.302 17.1984 247.302 17.4438 247.284 17.6882C247.107 19.0776 247.012 20.4762 247 21.8767C246.999 22.8707 247.072 23.8635 247.217 24.847C247.217 25.2141 247.368 25.698 247.502 26.2653C247.603 26.6773 247.676 27.0954 247.72 27.5169C247.72 27.8006 247.469 28.0342 246.949 28.2177C246.506 28.4034 246.037 28.5215 245.558 28.5682C244.686 28.5682 244.016 28.0175 243.513 26.8995C243.202 26.1337 243.02 25.3216 242.977 24.4965C242.893 24.3297 242.859 24.046 242.826 23.6455V23.6121ZM225.813 16.2531C225.415 16.2676 225.024 16.3524 224.656 16.5034C224.484 16.5734 224.304 16.6238 224.12 16.6536C223.852 16.6536 223.718 16.4868 223.718 16.1697C223.727 15.848 223.852 15.5403 224.07 15.302C224.278 15.0473 224.549 14.8516 224.857 14.7346C226.001 14.3222 227.212 14.1297 228.428 14.1673C229.643 14.1095 230.855 14.3382 231.964 14.8347C232.857 15.2416 233.563 15.9685 233.942 16.8706C234.124 17.3271 234.215 17.8145 234.21 18.3056C234.167 19.4485 233.807 20.5573 233.171 21.5095C232.533 22.6179 231.551 23.4903 230.372 23.9959C229.776 24.2835 229.124 24.4373 228.461 24.4465C227.858 24.4465 227.556 24.313 227.556 24.0126C227.556 23.7122 227.891 23.245 228.578 22.8278C228.918 22.6315 229.233 22.3963 229.517 22.127C229.86 21.7816 230.123 21.3659 230.288 20.9088C230.462 20.4161 230.541 19.8954 230.523 19.3736C230.547 18.8835 230.446 18.3953 230.229 17.9547C230.012 17.514 229.686 17.1353 229.282 16.8539L227.606 22.2938C227.489 22.661 227.355 23.1949 227.171 23.9625C226.966 24.9286 226.639 25.865 226.198 26.7493C226.057 26.9995 225.882 27.2296 225.679 27.4334C225.313 27.7382 224.907 27.9909 224.472 28.1844C224.039 28.3805 223.573 28.4938 223.097 28.5181C222.988 28.5352 222.876 28.5263 222.77 28.4921C222.665 28.4579 222.569 28.3994 222.491 28.3213C222.412 28.2432 222.353 28.1478 222.319 28.0428C222.285 27.9378 222.276 27.8262 222.293 27.7171C222.514 26.281 222.885 24.8717 223.399 23.512L223.785 22.2938L225.813 16.2531ZM215.052 17.221C214.303 17.9359 213.704 18.7925 213.292 19.7407C213.114 20.1657 212.979 20.6073 212.89 21.059C212.774 21.6076 212.718 22.1671 212.722 22.7277C212.643 23.3724 212.694 24.0263 212.873 24.6511C213.051 25.2758 213.353 25.8587 213.761 26.3655C214.098 26.6763 214.543 26.8439 215.002 26.8327C215.48 26.7804 215.939 26.6134 216.339 26.346C216.739 26.0787 217.068 25.7189 217.298 25.2975C218 24.374 218.387 23.2516 218.404 22.0936C218.364 21.0327 218.027 20.0041 217.432 19.1233C217.243 18.8726 217.117 18.5809 217.063 18.2723C217.076 18.1052 217.124 17.9427 217.205 17.7959C217.286 17.6491 217.398 17.5213 217.533 17.4212C218.123 16.7231 218.942 16.256 219.846 16.103C220.013 16.095 220.179 16.1273 220.331 16.197C220.482 16.2667 220.615 16.3718 220.717 16.5034C221.352 17.4446 221.626 18.5819 221.488 19.7074C221.504 21.2194 221.189 22.7168 220.566 24.096C219.954 25.4769 218.982 26.6695 217.75 27.5502C216.657 28.3359 215.344 28.7618 213.996 28.7684C213.225 28.7893 212.458 28.652 211.743 28.3649C211.028 28.0778 210.38 27.6471 209.839 27.0997C209.434 26.6857 209.119 26.194 208.911 25.6547C208.704 25.1154 208.609 24.5396 208.632 23.9625C208.708 22.2219 209.291 20.5407 210.308 19.1233C211.251 17.5696 212.578 16.2827 214.163 15.3854C215.397 14.669 216.792 14.2731 218.22 14.234C219.008 14.234 219.41 14.3508 219.41 14.6011C219.373 14.7728 219.285 14.9297 219.158 15.0517C218.611 15.5324 217.956 15.8757 217.248 16.0529C216.825 16.1612 216.415 16.3122 216.024 16.5034C215.671 16.7005 215.344 16.9416 215.052 17.221V17.221ZM201.643 26.4656C201.286 27.3366 200.641 28.0605 199.815 28.5181C199.532 28.6889 199.204 28.7722 198.873 28.7573C198.541 28.7425 198.222 28.6302 197.955 28.4347C197.794 28.3442 197.66 28.2135 197.566 28.0553C197.472 27.8972 197.421 27.7173 197.419 27.5336C197.694 25.9703 198.126 24.4385 198.709 22.9613C199.369 21.0256 199.927 19.457 200.385 18.2556L200.62 17.6382C200.277 17.6321 199.94 17.5524 199.631 17.4045C199.486 17.3547 199.36 17.2598 199.272 17.1337C199.185 17.0076 199.14 16.8569 199.145 16.7037C199.167 16.4076 199.284 16.1264 199.48 15.9027C199.884 15.2952 200.416 14.7826 201.039 14.4009C201.308 14.3061 201.593 14.2663 201.877 14.2841C202.229 14.2841 203 14.2841 204.174 14.4176H206.168H207.124C207.575 14.4427 208.023 14.504 208.465 14.6011C208.833 14.7346 209.018 15.085 209.018 15.6357C209.056 15.9164 209.003 16.2018 208.868 16.4508C208.732 16.6998 208.52 16.8994 208.263 17.0207C208.011 17.1305 207.747 17.209 207.476 17.2544L204.408 17.4045L203.285 21.1424C202.464 24.2796 201.894 26.0484 201.71 26.4656H201.643ZM191.368 27.5002C191.368 27.7839 191.116 28.0175 190.597 28.201C190.154 28.3884 189.684 28.5066 189.205 28.5515C188.351 28.5515 187.663 28.0008 187.177 26.8828C186.866 26.117 186.684 25.3049 186.641 24.4798C186.641 24.3297 186.641 24.046 186.641 23.6455C185.945 24.9436 185.096 26.1537 184.11 27.2499C183.452 28.0292 182.513 28.5205 181.495 28.6182C181.117 28.6381 180.74 28.5752 180.39 28.4339C180.039 28.2926 179.724 28.0764 179.467 27.8006C178.987 27.2081 178.747 26.4577 178.796 25.698C178.901 23.9058 179.233 22.134 179.785 20.4249C180.166 19.0224 180.636 17.6457 181.193 16.3032C181.478 15.6357 181.679 15.2019 181.813 14.9516C181.95 14.7572 182.127 14.5941 182.333 14.4733C182.538 14.3524 182.767 14.2765 183.004 14.2507C183.467 14.1569 183.939 14.1122 184.412 14.1172C185.149 14.1172 185.518 14.4343 185.518 15.0684C185.468 15.6491 185.309 16.2153 185.048 16.7371C184.814 17.2877 184.579 17.8718 184.361 18.5059V18.7061C184.194 19.2179 183.976 19.9688 183.708 20.9589C183.373 22.0491 183.132 23.1656 182.987 24.2963C182.987 24.5466 182.987 24.6801 183.205 24.6801C183.423 24.6801 184.378 23.3618 186.054 20.8421C186.725 19.8242 187.295 18.873 187.73 18.022C187.965 17.6048 188.133 17.3211 188.183 17.2043C188.343 16.9286 188.547 16.6806 188.786 16.4701C189.167 16.1992 189.626 16.0587 190.094 16.0696C190.731 16.0696 191.066 16.3533 191.066 16.9373C191.066 17.0875 191.066 17.3378 191.066 17.6715C190.88 19.0601 190.785 20.4592 190.781 21.86C190.775 22.8536 190.843 23.8463 190.982 24.8303C190.982 25.1974 191.133 25.6813 191.267 26.2487C191.359 26.6602 191.415 27.079 191.435 27.5002H191.368ZM191.083 10.1958C191.083 10.5962 190.714 11.1636 190.01 11.8645C189.553 12.3891 188.997 12.8185 188.372 13.1278C187.748 13.4371 187.068 13.6203 186.373 13.6667H186.188C186.15 13.6646 186.113 13.6506 186.083 13.6267C186.053 13.6027 186.031 13.57 186.021 13.5332C186.01 13.5006 186.01 13.4656 186.021 13.433C186.023 13.4025 186.035 13.3734 186.054 13.3496C186.339 13.0993 186.758 12.6654 187.362 12.048C187.659 11.5428 187.989 11.0579 188.351 10.5962C188.657 10.3962 188.998 10.2548 189.356 10.1791C189.765 10.0575 190.187 9.99022 190.613 9.97882C190.882 10.0122 191.083 10.0122 191.083 10.1958ZM166.929 24.6801C166.933 24.41 166.882 24.1419 166.778 23.8923C166.674 23.6426 166.52 23.4167 166.326 23.2283C165.892 22.8672 165.362 22.6409 164.8 22.5775C164.259 22.5197 163.752 22.285 163.359 21.91C162.789 23.779 162.454 24.8469 162.37 25.0806C162.012 26.1202 161.441 27.0748 160.694 27.884C161.617 28.2161 162.581 28.4237 163.56 28.5014C164.024 28.4943 164.48 28.3807 164.893 28.1694C165.306 27.9582 165.664 27.6549 165.94 27.2833C166.574 26.5627 166.926 25.6382 166.929 24.6801V24.6801ZM171.019 24.2796C171.01 25.0414 170.777 25.7839 170.349 26.4155C169.373 27.7294 168.098 28.7933 166.627 29.5193C165.265 30.3962 163.703 30.9183 162.085 31.0378C161.444 31.0381 160.807 30.9482 160.191 30.7708C159.286 30.5038 158.85 30.1534 158.85 29.7029C158.894 29.4389 158.993 29.1869 159.14 28.9629C159.288 28.7388 159.48 28.5476 159.705 28.4013V28.4013C159.531 28.4799 159.342 28.5198 159.152 28.5181C158.981 28.5457 158.806 28.5332 158.641 28.4814C158.477 28.4297 158.326 28.3402 158.202 28.2201C158.079 28.1001 157.985 27.9528 157.928 27.7901C157.872 27.6274 157.855 27.4538 157.878 27.2833C158.106 25.0789 158.561 22.9037 159.236 20.792C160.353 17.1654 161.208 15.1462 161.8 14.7346C162.487 14.3465 163.275 14.1722 164.063 14.234C164.918 14.234 165.354 14.501 165.354 15.0517C165.354 15.3187 164.767 17.3378 163.577 21.1257H164.247C164.565 21.1441 164.884 21.1441 165.203 21.1257H166.175C169.41 21.059 170.969 22.127 170.969 24.2796H171.019ZM179.115 15.0183C179.115 15.2853 178.528 17.3044 177.439 21.0924C176.751 23.2951 176.366 24.4298 176.299 24.6968C175.967 25.8739 175.358 26.9552 174.522 27.8506C174.298 28.0257 174.042 28.156 173.768 28.2344C173.513 28.3453 173.241 28.413 172.963 28.4347C172.092 28.4347 171.673 28.0175 171.673 27.1998C171.938 25.0091 172.427 22.851 173.131 20.7586C174.187 17.1542 175.008 15.1184 175.645 14.7012C176.332 14.3132 177.12 14.1388 177.908 14.2006C178.679 14.234 179.115 14.501 179.115 15.0183ZM146.832 23.8624L146.614 24.5466C146.614 24.6634 146.614 24.8636 146.446 25.164C146.224 26.0486 145.916 26.9093 145.525 27.7338L145.256 28.1009C144.798 28.5142 144.198 28.7354 143.58 28.7183C143.183 28.7312 142.79 28.6391 142.44 28.4513C142.264 28.3664 142.115 28.2337 142.012 28.0683C141.908 27.903 141.853 27.7118 141.854 27.5169C141.98 26.3663 142.279 25.2412 142.742 24.1795C142.206 24.0627 141.921 23.829 141.921 23.4786C141.991 22.8257 142.316 22.2264 142.826 21.8099C143.03 21.5776 143.289 21.3998 143.58 21.2926C143.58 21.2926 143.798 20.6251 144.167 19.4237C144.602 17.9817 145.163 16.5803 145.843 15.2352C145.978 15.0442 146.124 14.8604 146.279 14.6846C146.656 14.3372 147.156 14.1515 147.67 14.1673C147.959 14.1413 148.251 14.1907 148.515 14.3107C148.78 14.4306 149.008 14.617 149.179 14.8514C149.328 15.0731 149.404 15.3356 149.396 15.6023C149.023 17.3052 148.525 18.9784 147.905 20.6084C147.905 20.7086 147.804 20.8588 147.737 21.0757V21.1591L151.592 21.0757L151.777 20.4249C152.162 19.0899 152.598 17.8217 153.067 16.6536C153.311 15.9963 153.65 15.3779 154.073 14.8181C154.267 14.6224 154.5 14.4694 154.757 14.3688C155.014 14.2682 155.289 14.2223 155.565 14.234C156.671 14.234 157.241 14.7012 157.241 15.6357C157.027 17.3086 156.546 18.9366 155.816 20.4583C155.699 20.7753 155.598 20.9922 155.565 21.1091H155.716C156.537 21.1091 156.956 21.3594 156.956 21.86C156.956 22.3606 156.671 22.661 156.084 23.2784C155.907 23.4809 155.69 23.6455 155.447 23.7623C155.201 23.8688 154.942 23.9418 154.676 23.9792V24.1461C154.676 24.2295 154.559 24.4131 154.458 24.7135C154.358 25.0138 154.006 25.9149 153.62 26.8828C153.472 27.2643 153.23 27.6027 152.916 27.8673C152.293 28.4013 151.508 28.7126 150.687 28.7517C149.983 28.7517 149.631 28.4347 149.631 27.8339C149.762 26.7634 150.033 25.7145 150.436 24.7135L150.687 23.9625L146.832 23.8624ZM141.083 27.5002C141.083 27.7839 140.831 28.0175 140.312 28.201C139.869 28.3884 139.4 28.5066 138.92 28.5515C138.066 28.5515 137.378 28.0008 136.876 26.8828C136.579 26.1133 136.403 25.3027 136.356 24.4798C136.356 24.3297 136.356 24.046 136.356 23.6455C135.66 24.9436 134.811 26.1537 133.825 27.2499C133.165 28.0264 132.227 28.5171 131.21 28.6182C130.813 28.6587 130.412 28.6058 130.039 28.4638C129.667 28.3218 129.333 28.0946 129.065 27.8006C128.584 27.2081 128.345 26.4577 128.394 25.698C128.491 23.9062 128.818 22.1342 129.366 20.4249C129.767 19.0266 130.242 17.6508 130.791 16.3032C130.986 15.8636 131.204 15.4347 131.445 15.0183C131.58 14.8259 131.754 14.664 131.956 14.5433C132.158 14.4225 132.384 14.3455 132.618 14.3174C133.101 14.1982 133.596 14.1311 134.093 14.1172C134.831 14.1172 135.199 14.4343 135.199 15.0684C135.142 15.6475 134.983 16.2122 134.73 16.7371C134.495 17.2877 134.261 17.8718 134.043 18.5059V18.7061C133.864 19.2179 133.646 19.9688 133.389 20.9589C133.045 22.0466 132.804 23.1639 132.668 24.2963C132.668 24.5466 132.668 24.6801 132.886 24.6801C133.104 24.6801 134.093 23.3618 135.769 20.8421C136.44 19.8242 136.993 18.873 137.445 18.022C137.68 17.6048 137.831 17.3211 137.915 17.2043C138.064 16.9262 138.263 16.6774 138.501 16.4701C138.882 16.1992 139.341 16.0587 139.809 16.0696C140.446 16.0696 140.781 16.3533 140.781 16.9373C140.781 17.0875 140.781 17.3378 140.781 17.6715C140.595 19.0601 140.5 20.4592 140.496 21.86C140.491 22.8536 140.558 23.8463 140.697 24.8303C140.697 25.1974 140.848 25.6813 140.982 26.2487C141.052 26.6622 141.086 27.0809 141.083 27.5002ZM140.697 10.1958C140.697 10.5962 140.328 11.1636 139.608 11.8645C139.157 12.3931 138.604 12.8264 137.982 13.1388C137.36 13.4512 136.682 13.6363 135.987 13.6833H135.769C135.731 13.6813 135.694 13.6673 135.664 13.6434C135.634 13.6194 135.612 13.5867 135.602 13.5498V13.4497C135.594 13.4312 135.59 13.4114 135.59 13.3913C135.59 13.3713 135.594 13.3514 135.602 13.3329C135.87 13.0826 136.322 12.6487 136.909 12.0313C137.206 11.5262 137.536 11.0412 137.898 10.5796C138.203 10.3885 138.537 10.2476 138.887 10.1624C139.32 10.054 139.765 10.0035 140.211 10.0122C140.53 10.0122 140.697 10.0122 140.697 10.1958ZM119.98 15.8526L119.343 14.7012C119.479 14.598 119.625 14.5086 119.779 14.4343C120.415 14.2477 121.076 14.1577 121.74 14.1673C123.014 14.1673 123.902 14.9182 124.405 16.4367C124.693 17.3922 124.906 18.3686 125.042 19.3569C125.142 20.0411 125.243 20.5417 125.31 20.8254C125.511 21.593 125.679 22.1603 125.796 22.4941C125.913 22.8278 126.064 23.2617 126.232 23.7122C126.725 24.9483 127.285 26.157 127.908 27.3333C127.166 27.9494 126.266 28.3481 125.31 28.4847C124.955 28.4967 124.602 28.4162 124.288 28.2511C123.969 28.0705 123.708 27.8045 123.533 27.4835C123.206 26.8699 122.937 26.2275 122.729 25.5645C122.729 25.3309 122.578 25.1139 122.511 24.897C121.912 25.1844 121.263 25.3544 120.6 25.3976H119.929C119.745 25.3976 119.008 25.3976 117.7 25.3976L117.6 25.5979C117.3 26.2504 116.935 26.871 116.51 27.4501C116.17 27.8479 115.742 28.1609 115.258 28.3637C114.775 28.5666 114.251 28.6538 113.728 28.6182C113.024 28.6182 112.672 28.4347 112.672 28.0842C112.932 27.3863 113.318 26.7416 113.811 26.1819C114.113 25.7981 114.314 25.5144 114.432 25.3309C113.694 25.1974 113.342 24.9304 113.342 24.5633C113.342 24.1962 113.627 23.7957 114.214 23.1949C114.454 22.9112 114.776 22.7074 115.136 22.6109C115.498 22.527 115.87 22.4933 116.242 22.5108L117.331 20.5417L117.935 19.4737L118.773 18.022L119.98 15.8526ZM120.885 18.5893L119.008 22.6443H121.84L120.969 18.5893H120.885ZM111.012 27.3834C111.043 27.7053 111.043 28.0293 111.012 28.3512C110.912 28.7684 110.258 28.9853 109.101 28.9853C108.744 28.9792 108.395 28.8704 108.098 28.6721C107.801 28.4738 107.567 28.1944 107.425 27.8673C107.103 27.2024 106.947 26.4693 106.973 25.7314C106.96 24.7165 107.061 23.7034 107.274 22.711C106.67 23.322 106.014 23.8802 105.313 24.3797C104.621 24.902 103.784 25.1991 102.916 25.2308C102.55 25.2487 102.184 25.1776 101.851 25.0235C101.518 24.8694 101.228 24.637 101.006 24.3463C100.565 23.7543 100.34 23.0302 100.369 22.2938C100.407 20.8145 100.755 19.3594 101.391 18.022C101.827 16.6311 102.612 15.3736 103.671 14.3675C104.515 14.096 105.415 14.0443 106.285 14.2173C106.443 14.2626 106.58 14.36 106.675 14.4935C106.769 14.627 106.815 14.7886 106.805 14.9516C106.551 15.7437 106.22 16.5094 105.816 17.2377C105.28 18.1881 104.949 19.2396 104.844 20.3248C104.844 20.7419 105.095 20.9589 105.598 20.9589C105.993 20.9197 106.376 20.802 106.724 20.6128C107.073 20.4236 107.38 20.1668 107.626 19.8575C108.225 19.1713 108.784 18.4527 109.303 17.7049C109.679 17.0936 110.189 16.5746 110.794 16.1864C111.054 16.0553 111.341 15.9867 111.632 15.9861C112.504 15.9861 112.94 16.2698 112.94 16.8372C112.903 17.1684 112.824 17.4935 112.705 17.805C112.336 18.8897 112.085 19.6072 111.984 19.991C111.726 20.8119 111.519 21.6478 111.364 22.4941C111.102 24.1102 110.984 25.7464 111.012 27.3834V27.3834Z" fill="#1B1918"/>
<path fill-rule="evenodd" clip-rule="evenodd" d="M42.6754 17.3879L42.8095 17.2711L44.0666 16.4034L45.4913 15.4188C46.497 14.7347 47.3854 14.1172 48.4749 13.4498C50.4528 12.2483 52.5983 10.9467 54.7437 9.86205C58.8168 7.80955 64.5828 5.38993 69.8292 5.25644C69.8292 5.15632 72.5614 4.95607 78.5788 6.57471C78.9643 6.79164 79.4672 6.95851 79.8695 7.14207C82.9469 8.31109 85.5232 10.5044 87.1608 13.3496C90.0941 18.6728 90.731 25.7982 86.3227 30.9711C85.1346 32.3709 83.7179 33.5613 82.1323 34.4921C74.8577 38.764 54.0565 33.6411 54.1403 30.287C56.9465 31.1402 59.8439 31.6611 62.7726 31.8389C68.8571 32.8067 77.8581 32.8401 80.8752 26.8328C81.8004 24.7339 82.035 22.3976 81.5456 20.1579C81.137 18.2291 80.1282 16.4774 78.6626 15.1518C72.7122 9.76193 62.8396 11.6809 56.1685 14.5511C51.6885 16.5459 47.3338 18.8083 43.1279 21.326C38.8034 23.8458 34.7471 26.1486 30.3388 28.368C26.6847 30.1535 19.2258 33.3741 15.1527 33.0236C13.9006 33.1807 12.6335 33.1807 11.3814 33.0236C8.27125 32.6892 5.3425 31.4004 3.00053 29.3358C1.45805 27.952 0.450066 26.0749 0.151051 24.0293C-0.821124 16.687 3.1011 13.6166 10.5768 12.1315C14.8007 11.2971 20.9858 12.6822 25.1091 14.0505C21.7568 14.3842 19.209 14.5678 15.7897 14.718C14.6345 14.8041 13.5017 15.0804 12.4373 15.5356L12.1189 15.6858L11.7334 15.8861C6.82219 18.3557 5.86677 24.847 11.2473 26.9996C16.6278 29.1522 24.4052 26.5157 28.7799 24.7469C31.2448 23.7731 33.6513 22.6588 35.9875 21.4095L41.016 18.4892C41.542 18.0832 42.0965 17.7151 42.6754 17.3879V17.3879Z" fill="#1B1918"/>
<path fill-rule="evenodd" clip-rule="evenodd" d="M33.6077 35.6435C33.9246 34.3577 34.6616 33.2131 35.7029 32.3896C37.8096 30.859 40.4228 30.1848 43.011 30.5039C44.6334 30.6184 46.2337 30.9438 47.7713 31.4718C49.3301 32.0058 50.8554 32.6732 52.364 33.3407C52.9507 33.591 54.6436 34.2585 54.895 34.3252L54.1743 33.9581C51.8604 32.8928 49.9636 31.0982 48.777 28.8519C48.4975 28.3216 48.2782 27.7619 48.1233 27.1832C47.9864 26.5746 47.9078 25.9544 47.8886 25.3309C47.858 24.0804 48.104 22.8385 48.6094 21.6932C49.0888 20.6059 49.8318 19.6541 50.7716 18.9231C51.7344 18.1647 52.9005 17.7062 54.124 17.6049C55.5636 17.5025 56.9979 17.8653 58.2138 18.6394C58.5338 18.8221 58.8318 19.0405 59.1022 19.2902C59.7105 19.8125 60.2114 20.4472 60.5772 21.1592C60.762 21.4883 60.9136 21.8349 61.0298 22.1938C61.1748 22.5436 61.2543 22.9168 61.2644 23.2951C61.2644 23.5287 61.1471 23.7791 60.8789 23.8124C60.6107 23.8458 60.3425 23.4787 60.3258 23.195C60.309 22.9113 60.3258 22.344 60.2084 21.9268C60.1126 21.4895 59.9546 21.0681 59.7391 20.6753C59.3448 19.9415 58.7676 19.3209 58.063 18.8731C57.3352 18.3683 56.4459 18.1485 55.5655 18.2556C55.3213 18.2935 55.0917 18.3953 54.9003 18.5508C54.7088 18.7062 54.5623 18.9096 54.476 19.1401C54.4311 19.2526 54.4099 19.3731 54.4137 19.4941C54.4175 19.6151 54.4462 19.734 54.4981 19.8435C54.5499 19.953 54.6238 20.0508 54.7152 20.1307C54.8065 20.2106 54.9134 20.271 55.0291 20.3082H55.1297C55.0106 20.2651 54.91 20.1826 54.8447 20.0745C54.7999 20.0126 54.7689 19.9418 54.7539 19.867C54.7388 19.7921 54.7401 19.7149 54.7576 19.6406C54.7751 19.5663 54.8083 19.4965 54.8552 19.4361C54.902 19.3757 54.9613 19.3259 55.0291 19.2902C55.0945 19.2485 55.1678 19.2206 55.2444 19.2081C55.321 19.1956 55.3994 19.1988 55.4748 19.2175C55.5501 19.2363 55.6208 19.2702 55.6825 19.3171C55.7443 19.364 55.7957 19.423 55.8337 19.4905C55.9157 19.6281 55.9439 19.7909 55.913 19.9479C55.8821 20.1048 55.7942 20.245 55.666 20.3415C55.5236 20.4485 55.35 20.5063 55.1716 20.5063C54.9931 20.5063 54.8196 20.4485 54.6771 20.3415C54.5172 20.2306 54.3896 20.0796 54.3072 19.9037C54.2248 19.7279 54.1905 19.5336 54.2078 19.3403C54.2792 18.9516 54.4868 18.6007 54.7938 18.3501C55.1007 18.0995 55.487 17.9655 55.8839 17.972C54.9807 17.8373 54.0586 17.9058 53.1853 18.1722C52.0366 18.5305 51.025 19.2291 50.2856 20.1747C49.5911 21.0637 49.1199 22.1049 48.9111 23.2117C48.8501 23.5038 48.8053 23.7991 48.777 24.0961V24.2963C48.7667 24.3232 48.7667 24.3529 48.777 24.3798C48.7687 24.5299 48.7687 24.6803 48.777 24.8303C48.777 25.1307 48.777 25.4311 48.777 25.7314V26.1486C48.785 26.2207 48.785 26.2934 48.777 26.3655C48.777 26.3655 48.777 26.3655 48.777 26.4657C48.8993 27.0383 49.079 27.5974 49.3134 28.1344C49.3134 28.2679 49.4307 28.3847 49.481 28.5182V28.6183L49.5983 28.8519L50.0677 29.6362C50.7465 30.6621 51.5902 31.5697 52.5651 32.3228C52.9004 32.5731 53.2188 32.8067 53.5708 33.0403C52.4991 32.2448 51.6223 31.2179 51.0063 30.0367C50.4483 28.8313 50.2006 27.5065 50.2856 26.182C50.3207 25.576 50.4508 24.9792 50.6711 24.4132C50.9177 23.8401 51.2638 23.3147 51.6935 22.8613C52.377 22.0766 53.3169 21.5575 54.3473 21.3957C55.3778 21.2339 56.4326 21.4397 57.3254 21.9769C58.0166 22.3835 58.5932 22.9575 59.0016 23.6456C59.0729 23.7511 59.1346 23.8628 59.186 23.9793C59.3012 24.1906 59.3912 24.4146 59.4542 24.6468C59.5782 25.0192 59.6515 25.4064 59.6721 25.7982C59.7226 26.4075 59.6248 27.02 59.3871 27.5837C59.1192 28.3021 58.5938 28.8965 57.9121 29.2524C57.4133 29.5465 56.8325 29.6729 56.2559 29.6128C55.6793 29.5527 55.1375 29.3093 54.7106 28.9187C54.5384 28.7551 54.4031 28.5568 54.3138 28.3371C54.2245 28.1174 54.1832 27.8813 54.1927 27.6445C54.2023 27.4077 54.2623 27.1756 54.369 26.9637C54.4756 26.7518 54.6264 26.565 54.8112 26.4156C55.4146 26.0151 56.4874 26.0151 56.7053 26.8495C56.7391 27.0053 56.7235 27.1677 56.6604 27.3142C56.5973 27.4608 56.49 27.5841 56.3533 27.6671C55.951 27.8841 55.6996 27.5503 55.4649 27.2833C55.4087 27.2155 55.3345 27.1648 55.2506 27.137C55.1668 27.1093 55.0769 27.1057 54.9911 27.1266C54.9053 27.1475 54.8272 27.1921 54.7657 27.2553C54.7042 27.3184 54.6619 27.3975 54.6436 27.4836C54.3586 28.2679 55.247 29.0355 55.9007 29.2357C56.2531 29.3075 56.6167 29.3061 56.9685 29.2316C57.3204 29.1571 57.6531 29.0112 57.9457 28.8029C58.2383 28.5946 58.4846 28.3284 58.6692 28.021C58.8538 27.7136 58.9726 27.3716 59.0184 27.0163C59.2044 26.2506 59.0842 25.4428 58.6831 24.7636C58.5415 24.537 58.3473 24.3475 58.1169 24.211C57.8865 24.0745 57.6266 23.9951 57.359 23.9793C57.2408 23.9673 57.1214 23.9804 57.0087 24.0178C56.896 24.0552 56.7926 24.116 56.7053 24.1962C56.5377 24.3464 56.4371 24.6968 56.7053 24.7302C56.9735 24.7636 57.0237 24.5967 57.1913 24.6468C57.2645 24.6786 57.3253 24.7333 57.3646 24.8025C57.4039 24.8717 57.4196 24.9517 57.4093 25.0306C57.4093 25.648 56.4371 25.4978 56.2192 25.0306C56.1391 24.8715 56.1171 24.6896 56.1568 24.5161C56.1966 24.3426 56.2956 24.1882 56.4371 24.0794C56.7141 23.8521 57.0678 23.7387 57.426 23.7624C57.745 23.8017 58.0515 23.9102 58.3237 24.0803C58.596 24.2504 58.8274 24.478 59.0016 24.7469C59.1283 24.9211 59.2299 25.112 59.3033 25.3143V25.5812C59.3033 25.5812 59.3033 25.4311 59.3033 25.3643C59.1081 24.4187 58.6424 23.5494 57.9624 22.8613C57.352 22.2949 56.5889 21.9179 55.7666 21.7766C55.1683 21.6854 54.5566 21.7486 53.9899 21.9602C53.0309 22.3631 52.2509 23.0982 51.7941 24.0294C51.7316 24.1372 51.6756 24.2486 51.6265 24.3631V24.4966V24.6134C51.6265 24.8804 51.4589 25.1474 51.3918 25.4144C51.3054 25.6864 51.2437 25.9657 51.2074 26.2487C51.1825 26.5764 51.1825 26.9056 51.2074 27.2333C51.1452 28.8306 51.6168 30.4034 52.5484 31.7054C53.6137 33.0181 55.0322 34.002 56.6382 34.5422C55.9258 34.2602 55.2636 33.8657 54.6771 33.3741C53.3216 32.2862 52.4538 30.7084 52.2634 28.9854C52.1881 28.566 52.1881 28.1366 52.2634 27.7172C52.2744 27.6838 52.2958 27.6547 52.3244 27.6341C52.353 27.6135 52.3874 27.6024 52.4227 27.6024C52.458 27.6024 52.4924 27.6135 52.521 27.6341C52.5495 27.6547 52.5709 27.6838 52.5819 27.7172C52.6992 28.3513 52.783 29.0021 52.9339 29.5861C53.117 30.1972 53.3584 30.7895 53.6546 31.355C54.2289 32.4706 55.0835 33.4192 56.1354 34.1083C57.6928 35.0134 59.5263 35.3275 61.298 34.9927C61.432 34.9927 61.4488 35.1095 61.298 35.1262C59.0384 35.364 56.7539 35.1252 54.5933 34.4254C53.7217 34.1751 52.9171 33.8747 52.0288 33.5576L50.2856 32.8735C49.5145 32.6065 48.7435 32.3562 47.9557 32.1559C47.1679 31.9557 46.3633 31.7554 45.5588 31.6053L44.3184 31.4217H43.782H43.2289C42.5924 31.3883 41.9546 31.3883 41.3181 31.4217C40.9981 31.4386 40.6792 31.472 40.3627 31.5218H39.9101H39.7257H39.4743C38.8582 31.6558 38.2573 31.8515 37.6808 32.1059H37.4797H37.3791L36.96 32.3395C36.6938 32.5039 36.4364 32.6821 36.189 32.8735H36.1052L35.9543 33.007L35.6023 33.3574C35.3681 33.5944 35.155 33.8513 34.9654 34.125C34.6161 34.632 34.3606 35.1971 34.2111 35.7937C33.9367 36.7994 34.0503 37.8709 34.5296 38.7974V38.6138C34.4228 38.2894 34.3914 37.9451 34.4379 37.6069C34.4843 37.2686 34.6074 36.9454 34.7978 36.6614C35.2671 36.0106 36.0717 35.8771 36.7086 35.4433C36.9433 35.2764 37.4629 34.709 37.1444 34.4087C36.8259 34.1083 36.7924 34.5422 36.6248 34.5922C36.5629 34.6083 36.498 34.6095 36.4355 34.5956C36.373 34.5817 36.3148 34.5532 36.2656 34.5124C36.2164 34.4716 36.1777 34.4197 36.1527 34.3611C36.1278 34.3024 36.1172 34.2386 36.122 34.1751C36.2145 34.0719 36.3391 34.0027 36.4759 33.9785C36.6127 33.9543 36.7537 33.9765 36.8762 34.0416C37.0365 34.1296 37.1648 34.2657 37.243 34.4304C37.3212 34.5951 37.3454 34.7802 37.312 34.9594C37.2047 35.3751 36.9406 35.7337 36.5745 35.9606C35.8538 36.4111 34.8984 36.5613 34.5966 37.429C34.4692 37.854 34.4545 38.3047 34.5539 38.737C34.6533 39.1694 34.8633 39.5688 35.1637 39.8964C35.4641 40.224 35.8445 40.4686 36.2679 40.6064C36.6914 40.7443 37.1435 40.7706 37.5802 40.683C37.9383 40.6102 38.2724 40.4496 38.5524 40.2158C38.8107 40.0181 38.9987 39.7432 39.0888 39.4315C39.106 39.3265 39.106 39.2194 39.0888 39.1144C39.0772 39.0613 39.0504 39.0126 39.0118 38.9741C38.9732 38.9356 38.9243 38.909 38.8709 38.8975C38.6865 38.8975 38.5356 39.0143 38.368 39.1144C38.2089 39.1975 38.0253 39.2212 37.8501 39.1815C37.675 39.1417 37.5198 39.041 37.4126 38.8975C37.3101 38.7536 37.2551 38.5816 37.2551 38.4052C37.2551 38.2288 37.3101 38.0568 37.4126 37.913C37.5127 37.7664 37.6478 37.647 37.8058 37.5654C37.9639 37.4839 38.1398 37.4427 38.3177 37.4457C38.6805 37.4623 39.0228 37.6177 39.2731 37.8796C39.4784 38.1008 39.6075 38.3814 39.6419 38.6806C39.6681 38.9108 39.6459 39.144 39.5767 39.3652C39.5074 39.5864 39.3926 39.7908 39.2396 39.9655C38.9098 40.3878 38.4602 40.7017 37.949 40.8666C37.0984 41.0402 36.2135 40.9008 35.4583 40.4743C34.7031 40.0478 34.129 39.363 33.8424 38.5471C33.4632 37.6269 33.3812 36.6121 33.6077 35.6435Z" fill="#049372"/>
<path fill-rule="evenodd" clip-rule="evenodd" d="M40.3622 8.34353C40.1354 9.62103 39.5005 10.7915 38.5519 11.6809C36.5837 13.3855 34.0347 14.2752 31.4282 14.1673C29.7945 14.1903 28.1651 13.9939 26.5841 13.5833C24.9917 13.1828 23.4664 12.6321 21.7902 12.1148C20.1141 11.5975 15.6387 10.2458 12.7557 11.1469C12.6049 11.1469 12.6049 11.0468 12.7557 11.0135C14.9761 10.5901 17.2614 10.6413 19.4604 11.1636C20.3487 11.3472 21.2204 11.5641 22.092 11.8144C22.9636 12.0647 23.3658 12.1982 24.0028 12.4152C24.6397 12.6321 25.5784 12.7823 26.3829 12.9325C27.1875 13.0826 28.0591 13.1995 28.8301 13.2829H30.0705H31.16C31.7991 13.266 32.437 13.2159 33.0708 13.1327L34.0095 12.9491L34.4621 12.849H34.7135C35.2911 12.6562 35.8517 12.4162 36.3896 12.1315L36.8757 11.9646H36.9595C37.0832 11.8781 37.2008 11.7833 37.3115 11.6809C37.5702 11.5099 37.8116 11.3143 38.0323 11.0969C38.0323 11.0969 38.0323 11.0969 38.0323 11.0135L38.1664 10.88C38.2837 10.7465 38.401 10.6296 38.5016 10.4962C38.7198 10.2442 38.9108 9.97014 39.0715 9.67849C39.3751 9.16282 39.585 8.59796 39.6917 8.00979C39.9389 6.98999 39.7829 5.9146 39.2559 5.00613C39.2559 5.00613 39.2559 5.12293 39.2559 5.173C39.3829 5.48962 39.4382 5.83023 39.4179 6.17057C39.3977 6.5109 39.3023 6.84261 39.1386 7.14206C38.7195 7.84292 37.9317 8.02648 37.3283 8.5104C37.1104 8.69396 36.6411 9.31138 36.9931 9.57837C37.3451 9.84536 37.3283 9.42818 37.4792 9.36144C37.5389 9.3361 37.6041 9.3262 37.6687 9.33263C37.7333 9.33907 37.7952 9.36164 37.8487 9.39826C37.9022 9.43487 37.9455 9.48434 37.9747 9.54208C38.0039 9.59982 38.0179 9.66396 38.0155 9.72855C38.0155 10.2125 37.4959 10.3627 37.1104 10.2125C36.9435 10.1415 36.8043 10.0186 36.7136 9.8621C36.6229 9.70563 36.5857 9.52408 36.6075 9.34475C36.6822 8.92392 36.9162 8.54764 37.2613 8.29347C37.9485 7.77617 38.8201 7.55924 39.105 6.62477C39.2008 6.19 39.1816 5.73791 39.0491 5.31279C38.9167 4.88766 38.6756 4.50407 38.3495 4.19958C38.0234 3.8951 37.6234 3.68017 37.1888 3.57584C36.7541 3.47151 36.2997 3.48135 35.87 3.60442C35.5379 3.723 35.2351 3.91073 34.9817 4.15509C34.7492 4.37426 34.591 4.66003 34.5291 4.97275C34.5042 5.07698 34.5042 5.18558 34.5291 5.28981C34.5493 5.3412 34.5809 5.3874 34.6215 5.42495C34.6622 5.46251 34.7108 5.49047 34.7638 5.50674C34.9481 5.50674 35.099 5.35655 35.2499 5.23974C35.4023 5.14614 35.5826 5.10827 35.76 5.13263C35.9374 5.15699 36.1008 5.24206 36.222 5.37324C36.3355 5.50867 36.4057 5.67476 36.4236 5.85019C36.4415 6.02563 36.4063 6.20239 36.3226 6.35777C36.2347 6.51304 36.1086 6.6435 35.9561 6.73691C35.8037 6.83032 35.6298 6.8836 35.451 6.89176C35.2736 6.90125 35.0961 6.87511 34.9291 6.81491C34.7621 6.75471 34.609 6.66167 34.4788 6.54133C34.2572 6.3407 34.0998 6.07953 34.0263 5.79042C33.9485 5.3233 34.0567 4.84438 34.328 4.45545C34.6245 4.00598 35.0512 3.65682 35.5516 3.45423C36.3848 3.21496 37.2768 3.28428 38.0626 3.64936C38.8484 4.01444 39.4748 4.65056 39.8258 5.43999C40.3106 6.32629 40.4985 7.34351 40.3622 8.34353Z" fill="#049372"/>
<path fill-rule="evenodd" clip-rule="evenodd" d="M45.2569 24.4298C46.8325 25.4644 47.1678 27.6504 47.5365 29.536C47.3857 29.3358 47.218 29.1522 47.0504 28.9687C45.9112 27.4858 44.3527 26.3758 42.5751 25.7815C42.5751 25.7815 42.5751 25.7815 42.5751 25.7815C43.3871 26.1297 44.122 26.6345 44.7373 27.2666C45.3403 27.8666 45.9004 28.5078 46.4135 29.1856L46.095 28.9353C45.7007 28.6696 45.2859 28.4353 44.8547 28.2345C44.8547 28.2345 44.8547 28.2345 44.8547 28.2345C45.2656 28.5682 45.6573 28.9248 46.028 29.3024C46.4174 29.6484 46.7867 30.0161 47.1342 30.4038C47.2828 30.5573 47.4227 30.7188 47.5533 30.8877C46.3447 30.3498 45.1081 29.8763 43.849 29.4693C42.1728 28.6683 40.6978 25.698 38.7031 26.1319C40.0943 24.4465 43.145 23.0281 45.2569 24.4298Z" fill="#049372"/>
<path fill-rule="evenodd" clip-rule="evenodd" d="M18.2699 0.533993C15.521 1.86895 14.5153 5.32317 13.5263 8.2434C13.8113 7.9764 14.113 7.69272 14.4147 7.44242C16.5717 5.32388 19.3148 3.89453 22.2927 3.33741C22.2927 3.33741 22.2927 3.33741 22.2927 3.33741C20.9153 3.73076 19.6285 4.38831 18.5045 5.27311C17.4156 6.11468 16.3903 7.03495 15.4371 8.02646C15.6212 7.90544 15.8114 7.79405 16.007 7.69272C16.6916 7.35056 17.4036 7.06589 18.1358 6.84169C18.1358 6.84169 18.1358 6.84169 18.1358 6.84169C17.3983 7.27555 16.7278 7.80953 16.007 8.29346C15.313 8.76644 14.647 9.27903 14.0124 9.82866C13.7442 10.0456 13.4928 10.2792 13.2246 10.5295C15.1187 9.69517 17.6497 9.6451 19.4767 9.04437C22.3262 8.1099 25.3433 3.65447 28.4777 4.639C26.5334 1.66871 21.9239 -1.23483 18.2699 0.533993Z" fill="#049372"/>
<path fill-rule="evenodd" clip-rule="evenodd" d="M25.662 6.97519C24.12 6.97519 22.9131 8.32684 21.8404 9.42818L22.4103 9.26131C23.8298 8.76754 25.3655 8.70941 26.8186 9.09444C26.8186 9.09444 26.8186 9.09444 26.8186 9.09444C26.1154 8.96093 25.3931 8.96093 24.6899 9.09444C24.0175 9.23486 23.3564 9.42449 22.712 9.6618H23.0472C23.4267 9.6369 23.8075 9.6369 24.187 9.6618C24.187 9.6618 24.187 9.6618 24.187 9.6618C23.7512 9.6618 23.3489 9.79529 22.9131 9.86204C22.4773 9.92879 22.0918 10.0122 21.6728 10.1123L21.1699 10.2625C22.2313 10.4375 23.283 10.6658 24.3211 10.9467C25.7961 11.1303 28.126 9.77861 29.3496 10.9467C29.1317 9.278 27.6902 6.9585 25.662 6.97519Z" fill="#049372"/>
<path fill-rule="evenodd" clip-rule="evenodd" d="M9.1526 5.79041C9.07761 7.33168 9.59958 8.84283 10.6109 10.0122C10.6109 9.81198 10.6109 9.61173 10.6109 9.41149C10.4817 7.90642 10.8024 6.39693 11.5328 5.07287C11.5328 5.07287 11.5328 5.07287 11.5328 5.07287C11.242 5.72474 11.088 6.42885 11.0802 7.14206C11.0299 7.82531 11.0299 8.51131 11.0802 9.19456C11.0723 9.08345 11.0723 8.97193 11.0802 8.86082C11.1665 8.49195 11.2785 8.12951 11.4154 7.77616V7.77616C11.4154 8.21002 11.4154 8.6272 11.2981 9.06106C11.1808 9.49492 11.2981 9.89541 11.2981 10.3126C11.2981 10.4795 11.2981 10.663 11.2981 10.8299C11.7339 10.0122 12.4714 8.94425 12.8234 8.05984C13.4101 6.67482 12.6223 4.08833 13.9967 3.20392C12.2367 3.00368 9.63869 3.83803 9.1526 5.79041Z" fill="#049372"/>
</g>
<defs>
<clipPath id="clip0">
<rect width="300" height="41" fill="white"/>
</clipPath>
</defs>
</svg>
