<svg width="22" height="22" viewBox="0 0 22 22" fill="none" xmlns="http://www.w3.org/2000/svg">
<path d="M21.8078 20.878L16.4615 15.5317C17.8956 13.8829 18.7639 11.7317 18.7639 9.38049C18.7639 4.20488 14.5541 0 9.38342 0C4.20781 0 0.00292969 4.20976 0.00292969 9.38049C0.00292969 14.5512 4.21269 18.761 9.38342 18.761C11.7346 18.761 13.8859 17.8927 15.5346 16.4585L20.881 21.8049C21.0078 21.9317 21.1785 22 21.3444 22C21.5102 22 21.681 21.9366 21.8078 21.8049C22.0615 21.5512 22.0615 21.1317 21.8078 20.878ZM1.31512 9.38049C1.31512 4.93171 4.93464 1.31707 9.37854 1.31707C13.8273 1.31707 17.442 4.93659 17.442 9.38049C17.442 13.8244 13.8273 17.4488 9.37854 17.4488C4.93464 17.4488 1.31512 13.8293 1.31512 9.38049Z" fill="#383838"/>
</svg>
